<svg preserveAspectRatio="none" width="100%" height="100%" overflow="visible" style="display: block;" viewBox="0 0 15 15" fill="none" xmlns="http://www.w3.org/2000/svg">
<g id="svg-2131162239_601">
<path id="Vector" fill-rule="evenodd" clip-rule="evenodd" d="M3.35455 11.4368V8.775H6.015V11.4368H3.35455ZM2.46818 8.775C2.46818 8.28545 2.86364 7.88864 3.35455 7.88864H6.015C6.50591 7.88864 6.90136 8.28545 6.90136 8.775V11.4368C6.90136 11.5532 6.87844 11.6685 6.83389 11.776C6.78935 11.8836 6.72406 11.9813 6.64175 12.0636C6.55945 12.1459 6.46174 12.2112 6.3542 12.2557C6.24666 12.3003 6.1314 12.3232 6.015 12.3232H3.35455C3.23815 12.3232 3.12289 12.3003 3.01535 12.2557C2.90781 12.2112 2.8101 12.1459 2.72779 12.0636C2.64549 11.9813 2.5802 11.8836 2.53565 11.776C2.49111 11.6685 2.46818 11.5532 2.46818 11.4368V8.775ZM3.35455 6.11455V3.45409H11.3373V6.11455H3.35455ZM2.46818 3.45409C2.46818 2.96318 2.86364 2.56773 3.35455 2.56773H11.3373C11.8268 2.56773 12.2236 2.96318 12.2236 3.45409V6.11455C12.2236 6.34962 12.1303 6.57507 11.964 6.7413C11.7978 6.90752 11.5724 7.00091 11.3373 7.00091H3.35455C3.11947 7.00091 2.89402 6.90752 2.72779 6.7413C2.56157 6.57507 2.46818 6.34962 2.46818 6.11455V3.45409ZM8.67682 11.4368V8.775H11.3359V11.4368H8.67682ZM7.79045 8.775C7.79045 8.28545 8.18591 7.88864 8.67682 7.88864H11.3359C11.4524 7.88846 11.5678 7.91125 11.6755 7.95572C11.7832 8.00018 11.8811 8.06544 11.9635 8.14776C12.046 8.23009 12.1114 8.32786 12.156 8.43549C12.2007 8.54312 12.2236 8.65849 12.2236 8.775V11.4368C12.2236 11.5532 12.2007 11.6685 12.1562 11.776C12.1116 11.8836 12.0463 11.9813 11.964 12.0636C11.8817 12.1459 11.784 12.2112 11.6765 12.2557C11.5689 12.3003 11.4537 12.3232 11.3373 12.3232H8.67682C8.56042 12.3232 8.44516 12.3003 8.33762 12.2557C8.23008 12.2112 8.13237 12.1459 8.05006 12.0636C7.96776 11.9813 7.90247 11.8836 7.85793 11.776C7.81338 11.6685 7.79045 11.5532 7.79045 11.4368V8.775Z" fill="var(--fill-0, white)"/>
</g>
</svg>
