<svg preserveAspectRatio="none" width="100%" height="100%" overflow="visible" style="display: block;" viewBox="0 0 553 121" fill="none" xmlns="http://www.w3.org/2000/svg">
<g id="ss11556924993_1">
<g id="Vector">
</g>
<path id="Vector_2" d="M1 120L29.949 110.292L58.9 109.079L89.267 94.517L117.537 89.664L145.749 111.505L174.698 53.04L203.647 85.451L232.598 79.984L261.547 111.505L290.496 75.325L319.446 42.888L348.396 110.292L377.345 96.775L406.295 69.05L435.245 56.945L464.194 91.308L493.144 79.984L522.094 109.079L552 89.664" stroke="var(--stroke-0, #FF9C74)" stroke-width="0.65" stroke-miterlimit="10"/>
<path id="Vector_3" d="M1 120L29.95 110.286L58.9 109.071L87.85 79.928L116.8 94.5L145.75 111.5L174.7 33.786L203.65 75.071L232.6 88.428L261.55 106.642L290.5 28.084L319.45 1L348.4 105.429L377.35 106.642L406.3 45.929L435.25 31.357L464.2 75.071L493.15 89.643L522.1 100.345L551.05 101.56" stroke="var(--stroke-0, #EEEEEE)" stroke-width="0.65" stroke-miterlimit="10"/>
</g>
</svg>
