<svg preserveAspectRatio="none" width="100%" height="100%" overflow="visible" style="display: block;" viewBox="0 0 33 30" fill="none" xmlns="http://www.w3.org/2000/svg">
<g id="svg-1858735211_226">
<path id="Vector" d="M13.5 15C13.5 15.2652 13.3946 15.5196 13.2071 15.7071C13.0196 15.8946 12.7652 16 12.5 16C12.2348 16 11.9804 15.8946 11.7929 15.7071C11.6054 15.5196 11.5 15.2652 11.5 15C11.5 14.7348 11.6054 14.4804 11.7929 14.2929C11.9804 14.1054 12.2348 14 12.5 14C12.7652 14 13.0196 14.1054 13.2071 14.2929C13.3946 14.4804 13.5 14.7348 13.5 15ZM17.5 15C17.5 15.2652 17.3946 15.5196 17.2071 15.7071C17.0196 15.8946 16.7652 16 16.5 16C16.2348 16 15.9804 15.8946 15.7929 15.7071C15.6054 15.5196 15.5 15.2652 15.5 15C15.5 14.7348 15.6054 14.4804 15.7929 14.2929C15.9804 14.1054 16.2348 14 16.5 14C16.7652 14 17.0196 14.1054 17.2071 14.2929C17.3946 14.4804 17.5 14.7348 17.5 15ZM20.5 16C20.7652 16 21.0196 15.8946 21.2071 15.7071C21.3946 15.5196 21.5 15.2652 21.5 15C21.5 14.7348 21.3946 14.4804 21.2071 14.2929C21.0196 14.1054 20.7652 14 20.5 14C20.2348 14 19.9804 14.1054 19.7929 14.2929C19.6054 14.4804 19.5 14.7348 19.5 15C19.5 15.2652 19.6054 15.5196 19.7929 15.7071C19.9804 15.8946 20.2348 16 20.5 16Z" fill="var(--fill-0, white)" fill-opacity="0.5"/>
</g>
</svg>
