<svg width="38" height="38" viewBox="0 0 38 38" fill="none" xmlns="http://www.w3.org/2000/svg">
<path d="M0 37.9987L2.67163 28.2413C1.02101 25.379 0.154142 22.1321 0.158406 18.8279C0.163135 8.44642 8.61068 5.67317e-05 18.9934 5.67317e-05C21.4689 -0.00603778 23.9211 0.478961 26.208 1.42698C28.4948 2.375 30.5709 3.7672 32.3161 5.523C34.07 7.26852 35.4603 9.34458 36.4064 11.631C37.3526 13.9174 37.8359 16.3688 37.8284 18.8433C37.8236 29.2248 29.3737 37.6724 18.9934 37.6724H18.9851C15.8404 37.6718 12.7459 36.8833 9.98432 35.379L0 37.9998V37.9987Z" fill="white"/>
</svg>
