<svg width="32" height="32" viewBox="0 0 32 32" fill="none" xmlns="http://www.w3.org/2000/svg">
<path d="M16.0055 4.72372e-05C7.18 4.72372e-05 0.0036408 7.17399 1.63724e-05 15.9922C-0.00429735 19.0038 0.843891 21.955 2.4465 24.5048L2.82707 25.1089L1.21057 31.0118L7.26578 29.4231L7.85052 29.7699C10.3157 31.2299 13.1282 32.0002 15.9934 32.0001H15.9994C24.8189 32.0001 31.9952 24.8237 31.9989 16.0043C32.0054 13.9025 31.595 11.8203 30.7914 9.87823C29.9878 7.93613 28.807 6.17272 27.3173 4.69005C25.8356 3.19911 24.0729 2.0169 22.1312 1.21185C20.1895 0.406807 18.1074 -0.00507734 16.0055 4.72372e-05Z" fill="url(#paint0_linear_3_1157)"/>
<defs>
<linearGradient id="paint0_linear_3_1157" x1="15.6732" y1="1.91978" x2="15.8363" y2="29.2661" gradientUnits="userSpaceOnUse">
<stop stop-color="#57D163"/>
<stop offset="1" stop-color="#23B33A"/>
</linearGradient>
</defs>
</svg>
