<svg width="16" height="16" viewBox="0 0 16 16" fill="none" xmlns="http://www.w3.org/2000/svg">
<path d="M14.7472 6.54704C15.1104 5.45724 14.9839 4.26541 14.4043 3.27357C13.5309 1.7552 11.7758 0.971529 10.0615 1.33888C9.2982 0.481733 8.20432 -0.00806283 7.0533 0.00010044C5.30228 -0.00398119 3.74718 1.12255 3.20841 2.79194C2.08596 3.02051 1.11453 3.72663 0.543101 4.72663C-0.33445 6.24092 -0.13445 8.1552 1.04106 9.45316C0.677795 10.543 0.804326 11.7348 1.38392 12.7266C2.25739 14.245 4.01249 15.0287 5.72677 14.6613C6.49004 15.5185 7.58392 16.0083 8.73494 16.0001C10.486 16.0042 12.0411 14.8736 12.5839 13.2083C13.7104 12.9797 14.6819 12.2736 15.2492 11.2736C16.1227 9.75928 15.9227 7.84908 14.7472 6.54704ZM8.73494 14.9552C8.0329 14.9552 7.35535 14.7103 6.81657 14.2613C6.84106 14.2491 6.88188 14.2246 6.91045 14.2083L10.0982 12.3674C10.2615 12.2736 10.3594 12.1021 10.3594 11.9144V7.42459L11.7064 8.2001C11.7227 8.20826 11.7309 8.22051 11.7309 8.23683V11.9552C11.7268 13.6083 10.388 14.9511 8.73494 14.9552ZM2.29004 12.2042C1.93902 11.596 1.81249 10.8858 1.93086 10.196C1.95535 10.2083 1.99616 10.2368 2.02473 10.2532L5.21249 12.094C5.37575 12.1879 5.57575 12.1879 5.73494 12.094L9.62473 9.84908V11.4042C9.62473 11.4205 9.61657 11.4368 9.60433 11.445L6.38392 13.3062C4.95126 14.1266 3.12269 13.6368 2.29004 12.2042ZM1.45331 5.24908C1.80433 4.64092 2.35535 4.17561 3.01249 3.93479C3.01249 3.96337 3.01249 4.01235 3.01249 4.045V7.72663C3.01249 7.91439 3.11045 8.08581 3.27371 8.17969L7.16351 10.4246L5.81657 11.2001C5.80433 11.2083 5.788 11.2123 5.77167 11.2042L2.55126 9.34296C1.11861 8.51439 0.628815 6.68173 1.45331 5.24908ZM12.5145 7.82459L8.62473 5.57969L9.97167 4.80418C9.98392 4.79602 10.0002 4.79194 10.0166 4.8001L13.237 6.66132C14.6696 7.4899 15.1635 9.32255 14.3349 10.7593C13.9839 11.3674 13.4329 11.8328 12.7758 12.0736V8.28173C12.7758 8.0899 12.6778 7.91439 12.5145 7.82459ZM13.8574 5.80418C13.8329 5.78786 13.7921 5.76337 13.7635 5.74704L10.5758 3.90622C10.4125 3.81235 10.2125 3.81235 10.0533 3.90622L6.16351 6.15112V4.59602C6.16351 4.57969 6.17167 4.56337 6.18392 4.5552L9.40432 2.69806C10.837 1.86949 12.6737 2.36337 13.4982 3.8001C13.8451 4.40826 13.9717 5.11439 13.8574 5.80418ZM5.42881 8.57561L4.08188 7.8001C4.06555 7.79194 4.05739 7.77969 4.05739 7.76337V4.045C4.05739 2.38786 5.40024 1.045 7.05739 1.04908C7.75943 1.04908 8.43698 1.29398 8.97575 1.74296C8.95126 1.7552 8.91045 1.77969 8.88188 1.79602L5.69412 3.63275C5.53086 3.72663 5.4329 3.89806 5.4329 4.08581L5.42881 8.57561ZM6.15943 7.0001L7.89004 6.0001L9.62065 7.0001V9.0001L7.89412 10.0001L6.16351 9.0001L6.15943 7.0001Z" fill="white"/>
</svg>
