<svg width="20" height="18" viewBox="0 0 20 18" fill="none" xmlns="http://www.w3.org/2000/svg">
<path fill-rule="evenodd" clip-rule="evenodd" d="M4.9345 0.83721C4.57587 0.0419804 4.19925 0.0251886 3.8598 0.0119947L2.94463 0C2.62558 0 2.10862 0.119945 1.67082 0.598522C1.23423 1.0759 0 2.23096 0 4.58067C0 6.92918 1.7104 9.19972 1.94909 9.51877C2.18778 9.83782 5.25236 14.8119 10.1053 16.7274C14.1402 18.3167 14.9606 18 15.8362 17.9209C16.7118 17.8417 18.6621 16.7658 19.0591 15.6515C19.4573 14.536 19.4573 13.5813 19.3374 13.381C19.2187 13.1807 18.9008 13.0631 18.4222 12.8232C17.9448 12.5845 15.5975 11.4295 15.1597 11.27C14.7219 11.1104 14.4041 11.0313 14.085 11.5098C13.766 11.9872 12.852 13.0619 12.5737 13.381C12.2955 13.7 12.0172 13.7408 11.5386 13.5009C11.0613 13.2622 9.52357 12.7573 7.69922 11.1308C6.27908 9.86541 5.32072 8.30254 5.04245 7.82516C4.76298 7.34658 5.01247 7.0887 5.25236 6.85001C5.46586 6.63651 5.72973 6.29227 5.96842 6.014C6.20831 5.73573 6.28627 5.53662 6.4458 5.21757C6.60413 4.89972 6.52496 4.62025 6.40622 4.38156C6.28627 4.14287 5.35911 1.78117 4.9345 0.83721Z" fill="white"/>
</svg>
