<svg width="9" height="10" viewBox="0 0 9 10" fill="none" xmlns="http://www.w3.org/2000/svg">
<path d="M0.986343 0.489475C0.931286 0.456831 0.868571 0.439343 0.804568 0.438783C0.740565 0.438225 0.677553 0.454616 0.621935 0.486293C0.566317 0.517969 0.520075 0.563802 0.487904 0.619135C0.455732 0.674469 0.438781 0.737332 0.438769 0.801337V9.19867C0.438781 9.26267 0.455732 9.32553 0.487904 9.38086C0.520075 9.4362 0.566317 9.48204 0.621935 9.51371C0.677553 9.54539 0.740565 9.56178 0.804568 9.56121C0.868571 9.56066 0.931286 9.54317 0.986343 9.51053L8.07154 5.31186C8.12566 5.27976 8.17049 5.23412 8.20162 5.17944C8.23276 5.12476 8.24913 5.06292 8.24913 5C8.24913 4.93708 8.23276 4.87524 8.20162 4.82056C8.17049 4.76588 8.12566 4.72025 8.07154 4.68814L0.986343 0.489475Z" stroke="#F2F2F7" stroke-width="0.875" stroke-linecap="round" stroke-linejoin="round"/>
</svg>
